<?xml version="1.0" encoding="UTF-8" standalone="no"?>
<!-- Generator: Adobe Illustrator 24.0.1, SVG Export Plug-In . SVG Version: 6.00 Build 0)  -->

<svg
   version="1.1"
   id="katman_1"
   x="0px"
   y="0px"
   viewBox="0 0 800 533"
   style="enable-background:new 0 0 800 533;"
   xml:space="preserve"
   sodipodi:docname="sudamerica.svg"
   inkscape:version="1.4.2 (f4327f4, 2025-05-13)"
   xmlns:inkscape="http://www.inkscape.org/namespaces/inkscape"
   xmlns:sodipodi="http://sodipodi.sourceforge.net/DTD/sodipodi-0.dtd"
   xmlns="http://www.w3.org/2000/svg"
   xmlns:svg="http://www.w3.org/2000/svg"><defs
   id="defs31" /><sodipodi:namedview
   id="namedview31"
   pagecolor="#ffffff"
   bordercolor="#000000"
   borderopacity="0.25"
   inkscape:showpageshadow="2"
   inkscape:pageopacity="0.0"
   inkscape:pagecheckerboard="0"
   inkscape:deskcolor="#d1d1d1"
   inkscape:zoom="1.5290807"
   inkscape:cx="421.1681"
   inkscape:cy="196.52331"
   inkscape:window-width="1920"
   inkscape:window-height="1017"
   inkscape:window-x="-8"
   inkscape:window-y="-8"
   inkscape:window-maximized="1"
   inkscape:current-layer="g31" />
<style
   type="text/css"
   id="style1">
	.st0{fill:none;enable-background:new    ;}
	.st1{fill:none;}
	.st2{font-family:'ArialMT';}
	.st3{font-size:14px;}
	.st4{enable-background:new    ;}
	.BRZ{fill:#FFFFFF;stroke:#444444;stroke-width:0.5;stroke-miterlimit:11;}
	.st6{fill:#A35646;stroke:#444444;stroke-width:0.5;stroke-miterlimit:11;}
	.st7{fill:#C0C8B4;stroke:#444444;stroke-width:0.5;stroke-miterlimit:11;}
	.st8{fill:#F59743;stroke:#444444;stroke-width:0.5;stroke-miterlimit:11;}
	.st9{fill:#D94D7D;stroke:#444444;stroke-width:0.5;stroke-miterlimit:11;}
	.st10{fill:#B10B9B;stroke:#444444;stroke-width:0.5;stroke-miterlimit:11;}
	.st11{fill:#8D8399;stroke:#444444;stroke-width:0.5;stroke-miterlimit:11;}
	.st12{fill:#4E57EF;stroke:#444444;stroke-width:0.5;stroke-miterlimit:11;}
	.st13{fill:#B71910;stroke:#444444;stroke-width:0.5;stroke-miterlimit:11;}
	.st14{fill:#3B0FF5;stroke:#444444;stroke-width:0.5;stroke-miterlimit:11;}
	.st15{fill:#F47CF5;stroke:#444444;stroke-width:0.5;stroke-miterlimit:11;}
	.st16{fill:#F0BAA7;stroke:#444444;stroke-width:0.5;stroke-miterlimit:11;}
	.COL{fill:#D5F5DD;stroke:#444444;stroke-width:0.5;stroke-miterlimit:11;}
	.st18{font-family:'Tahoma';}
	.st19{font-size:17px;}
	.st20{font-size:13px;}
	.st21{font-size:15px;}
	.st22{font-size:12.9994px;}
	.st23{fill:#C1BE4F;stroke:#444444;stroke-width:0.5;stroke-miterlimit:11;}
	.st24{font-size:12.9988px;}
</style>
<path
   class="st0"
   d="M0,0"
   id="path1" />
<path
   class="st1"
   d="M790,261.5h10v10h-10V261.5z"
   id="path2" />
<path
   class="st1"
   d="M5,5"
   id="path3" />

<path
   class="st4"
   d="M0,0"
   id="path4" />
<g
   id="g31">
	
		
	<g
   id="g30"
   >
		<g
   id="g29"
   transform="translate(20.27362,-5.2319018)"
   >
			<path
   class="BRZ"
   d="m 450.1,126.6 -0.6,3.3 -3.6,2.7 -1.2,-0.3 2.1,-2.4 1.3,-3.1 z m 2.4,-1.6 -1,-0.6 0.7,-1.5 2.2,0.7 z m 10,-2 0.9,0.6 -0.7,0.7 -2.7,-0.3 z m -5,-1.7 4,-0.6 0.8,0.7 -2.3,1.9 -3.5,-0.6 z m -0.6,-1.1 0.6,-1.3 1.3,0.7 -3.5,2.2 1.2,-3.1 z m -32.8,223.5 0.5,-2.2 2,-2.7 1.3,0.9 1.7,-2.2 -0.6,-1.7 -2.6,2 -2.5,-2.2 -0.6,-1.9 -2,-1 -2.4,-3 -3.7,-1.7 -1.7,-2.5 -2.4,1.4 0.1,-1.8 -4.5,-4.7 -2.2,1.1 -2.2,-0.7 1.7,-1.3 5.2,-6 3.8,-5.2 2.7,-2 1.7,-0.4 0.8,-1.4 6.1,-2.7 0.9,-1.9 0.4,-4.2 -1.2,-3.9 -1.1,-0.9 -2.9,0.3 v -0.3 l -0.1,-0.6 2,-2.4 0.3,-6.4 -2.1,-1.8 -1.8,1 -2.7,-0.1 -1.2,-6.3 0.1,-2.4 -1.4,-2 -1.9,-0.3 -1.3,-1.3 -2.5,1.3 -2.2,-0.7 -3.8,-0.3 -0.8,-0.7 1.1,-6.9 -2,-5.2 1.8,-1.2 -1.6,-1.6 2.1,-4.3 1.6,-5.6 -1.4,-4.1 -3.6,-2 -0.5,-6.1 -10.4,-0.4 -0.7,-5.1 -2.1,-2.7 h 1.9 l -0.1,-3.1 -1.1,-2.3 v -3.1 l -3.7,-2.2 -5.1,0.5 -2.1,-2.7 -4.1,-0.8 -1.8,-2.2 -2,0.2 -2.6,-1.4 -0.8,0.7 -3,-0.6 -0.5,-1.3 -3.5,-1.6 -1.3,-1.6 -1.5,-3.9 -0.3,-4.7 0.7,-1.5 -0.2,-2.6 -1,-1 -7.6,1.8 -2.7,2.5 -1.8,0.6 -2.3,2.6 -2.4,0.1 -1.2,1.9 -3.1,1.2 0.1,-0.8 -5.3,-0.1 h -2.4 l -2.1,1.1 -2.3,-0.2 -0.6,-9.6 -4.8,3.2 -5.2,0.5 -1,-3.1 -3.4,-0.5 -2.6,0.2 1.5,-2.3 -1.6,-2.3 -2.5,-2 -1.6,-3.8 -2.2,-1.4 1.8,-1.8 -0.6,-2.7 3.9,-3.6 -0.9,-2.3 1.4,-2.6 0.2,-4 1.9,-0.9 3.5,-3.2 1.9,-1 5.4,-1.1 0.8,-1.4 3.5,-0.3 0.8,1.1 1.6,-0.9 2.4,-21.4 -1.8,-3 -0.1,-1.5 -3.3,-2.4 -0.2,-5.1 3.8,-1.3 2.6,0.3 -1.8,-2.8 -3.4,0.3 -0.3,-4.6 11.9,-0.9 -0.4,-2 1.5,1.8 2.8,-2.3 1.7,-0.3 1.7,2.6 0.6,3.8 1.3,-0.5 3.4,2.8 1.8,0.4 4,-1.9 0.3,2.3 2.9,-3.5 2.8,-1 4.5,-3 0.6,-2.3 4.1,-1.4 0.2,-2 -4.7,-0.2 0.3,-1.7 -1.7,-3 v -3.4 l -2.4,-1.8 -2.1,-2.8 1.7,0.9 3.3,0.1 0.5,1.3 4.6,-0.5 3.6,2.8 1.3,-0.7 -0.2,-2.6 2.7,-1.2 1.4,0.6 4.5,-1.2 2,-2 2,0.1 2.9,-2.8 -0.9,-2.2 3.8,-0.5 1.7,1.3 -1.2,4.2 3.3,1 -0.3,1.5 1.5,1.8 -2.2,2.3 -1.2,6.6 1.8,3.1 v 2.9 l 3.6,3.5 2.4,1.1 2.7,-0.3 1.4,-2.3 5.5,-0.7 1.6,-1.8 1.7,-0.3 2.1,1.1 2.3,-0.5 3.2,0.9 0.8,-1.4 -1.4,-2.2 1,-1.3 1.8,0.9 5.3,-0.9 2.5,1.6 3.4,1.7 2.2,-1.4 3.5,-0.1 2.7,1.4 1.8,-1.2 5.7,-9.4 1.6,-1.9 2.1,-0.8 v -2.4 l 2,2.2 0.1,3.8 2.9,10.9 0.7,1.5 0.8,-1.5 1.8,2.8 1.9,1.3 -0.4,4.2 -1.4,2.2 -2.6,0.6 -2.5,3.2 -3.4,1.9 0.7,1 -2,1 -2,2.2 -0.3,2 -1.5,1.9 -1.9,0.1 -3.6,1.5 3,-0.4 0.1,1.3 2.4,-0.8 7.8,-3.9 -1,1.3 1.7,4.8 1.5,1 3.2,-0.5 2.2,0.8 2.3,-1.3 -1.8,6.3 2.4,-4.6 2,-2.2 -0.1,1.3 2.5,-2.6 1.4,1.9 v -3.4 l 3.2,-3.2 2.2,-0.6 1.5,1.6 0.3,-1.1 4.4,1.3 2.2,2.3 2.2,-0.5 -0.5,1.5 1.8,-0.3 1.7,2.3 1,-0.6 1.2,3.5 2.5,-2.4 1.1,2.6 1.8,1.2 0.5,3.9 -1.8,1.9 1.2,1.8 0.7,-2.7 2.1,-0.8 v 1.1 l -2.1,1.4 1.9,0.1 2.2,-1.4 0.8,-1.8 1.4,2.2 0.2,-1.5 4.9,2.2 3,2.3 6,1.4 5.8,-0.1 3.5,0.9 3.9,2.9 4.2,4.1 1.2,0.3 2,3.5 2.9,3.6 1.8,0.9 0.7,1.6 3.9,2.2 3.8,0.1 3.1,1.2 1.2,2.6 0.7,9.8 0.4,1.9 -1,4.9 -3.4,6.2 -1.6,1.2 -8.6,7.3 -3.5,1.3 -4.2,4.6 -1.9,3 -3.1,3.5 -3.3,2 0.3,-2 -1.7,0.3 1,1.3 -2.6,1.5 v 2.5 l -1.3,1.8 0.8,0.6 -1.6,4.3 0.2,7.7 -3.4,8.2 -0.1,3.4 -2.5,1.8 -1.8,3.1 -0.7,5.8 -2.2,1.9 -2.6,4.5 -2.6,1.9 -2.6,4.1 0.3,2.8 -4.4,1.5 -2,1.4 0.3,1.6 -1.1,1 -5.8,-0.6 v -2 l -1.2,0.4 0.1,1.6 -3.7,-1 -5.1,0.7 0.5,1.6 -1.8,-0.3 -3.4,1.7 0.9,1.6 -3.5,-1.3 -1.7,0.4 -5.1,2.5 -0.3,0.7 -3.4,1.8 -4.7,4.5 -1.9,2.3 0.3,2.4 -1.2,2 0.2,5.2 1,0.8 -3.1,7.3 -3.1,1.8 -2.9,3.1 -1.5,2.3 -1.8,4.1 -2.5,3.6 -2.6,2.7 -4.1,2.7 4,-3.5 0.3,-1.9 2.5,-1.6 0.4,-2.8 -3,-1.3 0.2,1.2 -1.2,1.9 -0.5,2.7 -2.8,1.3 -1.7,2.7 -0.5,3.6 -2.3,5.3 -4.3,4 -0.9,-0.7 z m 45.6,-217.8 -1.1,4.3 -2.3,2 -0.1,1.6 -2.5,1 -1.9,-0.1 -2.6,1.2 -1.3,-1.2 -0.9,0.7 -3.1,-0.3 -1.2,-2.4 0.6,-4.3 -0.4,-0.7 1.3,-3 2.1,-1 4.9,1.3 3.1,-0.5 z"
   id="BRZ"
    />
			<path
   class="ECU"
   d="m 251.7,151.5 -1,0.3 0.1,-2.1 2.1,-0.3 z m -1.2,3 2.4,-1.7 1,-4.6 -1.4,-3 0.3,2.6 h -1.4 l -1.4,1.9 -2.6,-1.6 -1.8,-0.4 0.9,-1.6 -1.2,-3.2 0.4,-2 -1.5,-1.7 2.3,-1.6 -0.1,-3.6 2.5,-3.4 -0.6,-5.6 3.9,-2.2 3.2,-0.7 0.9,-2.4 2,1.4 3.4,1.5 3.2,0.3 1.6,1 0.5,1.7 3.8,0.7 3.4,-0.5 0.5,-1.5 1.9,0.5 2,1.8 3.7,1 -2.4,0.3 2.8,2.6 0.6,3.1 -1.3,-0.2 -0.6,4.1 -3.2,4.7 -3.7,3.6 -7.6,3.8 -2,3 -1.1,0.5 v 2.5 l -1.3,4 0.3,1.5 -1.5,1.6 -0.7,1.9 -2.8,-1 -0.6,-1.8 -2.2,-0.1 -2.3,-1 -1.6,1.5 -0.9,-3.1 2,-1.1 z"
   id="path6"
    />
			<path
   class="VEZ"
   d="m 383,57.7 -2.2,0.2 -0.3,-0.9 2,-0.9 z m -25.4,-16.1 -2,-1.1 1.6,-1 1.2,0.7 1.2,-1.5 0.7,1.6 z m 31.2,16.8 1.5,2 -1.5,1.7 -3.6,1.8 -1.7,2.2 0.6,2.3 2.6,0.9 -0.6,1.3 -2.5,1.4 -3,0.3 -0.6,1.3 0.6,2.6 -1.9,2 4.7,5.2 0.9,2.2 -2.9,2.8 -2,-0.1 -2,2 -4.5,1.2 -1.4,-0.6 -2.7,1.2 0.2,2.6 -1.3,0.7 -3.6,-2.8 -4.6,0.5 -0.5,-1.3 -3.3,-0.1 -1.7,-0.9 2.1,2.8 2.4,1.8 v 3.4 l 1.7,3 -0.3,1.7 4.7,0.2 -0.2,2 -4.1,1.4 -0.6,2.3 -4.5,3 -2.8,1 -2.9,3.5 -0.3,-2.3 -4,1.9 -1.8,-0.4 -3.4,-2.8 -2.7,-8.2 -3.2,-2.8 -1.5,-0.4 3.6,-4.1 -2.5,-2.3 -2,-5.3 0.3,-4 -0.5,-1.6 1.4,-1.5 0.2,-2.5 1.2,-1.6 -1.2,-1.6 -7.7,1.4 -3.2,-0.4 -2.7,0.9 -5.2,-5.7 -3.6,-0.8 -4.4,1.3 -6.6,-0.2 -1.1,-2.3 -1.9,-0.3 -0.6,-3.8 1,-1.3 -0.5,-1.7 -2.3,-2.2 -1.5,-3.6 -1.5,-1 -2.6,1.3 2.5,-5.4 0.1,-4.8 2.6,-5.5 1.8,-0.5 1.8,-4 4.7,-1.8 -0.3,0.7 -4.3,1.6 0.3,1.6 3.2,4.9 -0.3,2.1 -2.3,2.9 -1,2.2 3.2,3.7 -0.1,1.5 1.9,0.4 1.7,-0.9 1.5,-1.9 -0.1,-3 -2.7,-3.3 -2,-4.4 5.2,-3.4 2.6,-0.6 4.1,-2.4 1.5,0.2 -0.6,-1.6 -2.8,0.9 -1,-1.9 0.6,-2 1.4,-0.8 1.5,1.4 1.9,4.2 2.6,-0.7 3.1,0.4 3.8,2.3 1.1,1.7 0.3,2.5 2.3,0.7 6.9,-1.5 5.7,-0.6 3.3,3.1 5.7,1.1 2.5,-0.5 4.5,-3 3.1,-0.2 -3.1,-0.9 10.6,-1.4 5.7,0.7 -2.8,1 -3.3,0.3 1.2,2.7 2.9,2.2 -0.3,-1.4 3.4,1.7 1.5,-0.8 3.8,2.4 1.2,0.2 1.7,2.4 -2.5,2.5 -0.8,2.3 6.2,-0.3 z"
   id="path7"
    />
			<path
   class="CHL"
   d="m 356,499 1,-0.2 0.9,2.2 -1.7,-0.1 z m 2,-4.5 -0.8,2.3 -1.1,-1 -0.6,0.7 -1.9,-0.1 -1.3,-2.3 4.6,-0.2 z m -17.2,0.4 2.9,0.9 -0.8,1.1 -0.2,-1.1 -1.6,0.2 z m 6.5,-0.6 1.5,0.2 -3.2,0.9 0.6,-1.4 z m -9.4,-6.5 h 1 l 0.4,1.3 1,-0.6 -0.5,2.2 -1.7,-1.8 z m -1.6,-0.5 1,0.2 -0.6,3.2 -1.6,-1.7 z m 6.9,0.7 -1.5,-0.6 2,2.2 -1.9,-0.5 -1,-1.1 -0.1,-1.4 1.1,0.1 -0.5,-1.3 1,-1.1 z m -16.2,-11.2 -0.1,2.2 -0.8,-0.5 -1,-0.1 z m -3.6,-0.4 1,2.3 -1.3,-1.5 -1.5,-1.1 z m 0.5,-1.7 2.6,1.8 -1.3,0.5 -0.2,-1.3 z m -3.2,-1.3 -0.3,-1 2.7,1.7 -0.6,1.4 -1.9,-1.1 z m -0.4,-3.3 -1.1,1.7 0.2,-2.4 1,0.2 1.7,-1.2 -0.7,1.7 z m -0.2,-4.6 1,-0.7 0.4,1.1 1.3,-0.1 0.1,2.4 -2,-1.5 z m 1.2,-2.6 1.2,-0.1 1.2,2.3 -0.6,0.5 z m -2,0.5 -0.6,2.2 h -0.8 l -0.3,-2 z m -1.2,-3.3 1.1,1 1.2,-0.6 -1.7,2.6 -1.2,-0.5 0.2,-1.3 1.2,0.4 z m -1.3,-3.3 0.6,0.2 1,1.9 -2.2,-1.6 z m 0.2,-4.2 0.4,0.7 -1.8,-0.6 0.4,-1 z m -0.3,-2.6 -1.6,-0.2 0.2,-1.1 1.2,-0.2 z m 1.2,0 0.3,2.3 -0.6,0.2 -1.1,-4.6 -0.6,0.6 -0.9,-2.3 1,-0.7 1.5,3.2 z m -0.6,-5.8 -1.3,-0.6 1.6,-0.7 v 1.5 l 1.2,-0.5 0.5,2 -2.5,-0.2 z m 5.3,-0.3 -1.5,1 -0.9,-0.4 1.1,-0.9 z m -1.7,-17.3 0.8,0.2 -0.4,2.8 -1.1,-1.9 z m -1.9,0.1 1,1.5 -0.9,1.1 -1.5,-0.3 z m 1.2,-3 -1.4,0.2 0.7,-1.1 1.1,0.1 1.4,1.4 -0.4,1.7 h -1.5 l -0.8,-1.4 z m -1.9,-6.6 0.7,3.7 3.3,0.6 -1,1.9 -0.7,-1 -1.8,0.2 z m 5.8,1.8 2,0.5 -0.2,1.8 -2.1,1.7 -1.1,-1.9 z m -2.6,-1.5 -0.6,-1.5 -2,-0.1 1.4,-0.6 1.2,1.3 0.1,1.9 -2,1 -0.3,-1.3 0.9,-0.8 0.3,1.4 z m 3.8,-171.1 2.6,-0.7 1,-1.9 -0.6,-1.5 2,-1.6 2.4,4 1.5,4.6 -0.2,0.6 3.2,3.1 -1.1,1.9 0.8,1.9 -1.1,0.3 0.7,2.7 1.2,0.7 -0.4,1.6 2.3,2.5 0.9,4.3 0.7,0.6 0.9,3.3 v 1.8 l 2,0.2 2.1,-0.6 1.1,1.1 -1.7,6.8 -5,2.6 -1.8,2.6 1.3,2 -1.2,2.3 1.4,4.7 -0.9,0.9 0.1,1.6 1.5,2 v 1.1 l -1.4,0.9 -1.2,-0.3 -1.1,2.3 -0.7,3.1 -2.5,3.2 -0.6,4.6 -1.2,1.8 0.8,2.3 -0.1,2.4 0.5,1.4 -1.5,0.5 -0.6,3.8 -0.7,1.1 -0.4,3 1.8,4.7 0.9,1.2 0.6,3.7 0.7,1.7 1.2,0.4 -0.5,1.9 0.6,3.8 -1.1,0.3 -0.9,2 -0.6,4 -0.8,0.3 0.9,1.9 0.4,3.5 -1.6,1.6 v 1 l -1.7,0.6 -0.6,2.4 0.7,1.7 -0.3,1.4 0.3,2.7 1.1,2.3 1,4.2 -2.7,1.9 0.2,2 -0.4,2.6 -0.9,-0.2 0.5,2.2 -0.9,2.2 0.8,0.8 -1.2,2.7 0.6,1.5 v 4.7 l 1.2,3.1 -1.5,0.6 0.2,2.3 -0.5,0.8 0.2,2.7 2.1,1.1 -0.8,1.9 1.2,0.9 0.5,2.3 -0.9,1.3 0.3,2 3,-0.1 0.5,0.7 -0.9,2 -3.5,-0.1 v 1 l 2.4,0.3 1.5,2.2 -0.9,1.6 -1.2,0.5 v 1.2 l 1,1.5 -1.4,1.4 0.8,0.6 0.6,3.1 -1.1,0.9 -0.2,1.7 0.7,0.8 -1.3,1.9 -1.5,3.8 1.1,1 0.4,1.9 -1.3,1 0.2,2.4 -1.8,1.6 -0.6,1.9 -0.9,0.6 -0.5,1.6 0.7,1.6 v 2.8 l 1.1,0.9 1,3.4 1.7,-1.1 2.2,0.1 0.6,4.2 -0.7,2.5 2.5,2.2 0.3,0.9 8.9,-0.6 6.8,1.7 v 0 0 0 l 0.1,0.1 v 0.3 l -3.2,-0.9 -1.4,0.5 -0.9,2.1 -0.8,-0.3 -3.8,2.2 -0.8,3.8 0.3,2.7 -0.3,1.7 -1.3,0.6 -1.4,-0.3 -3,-1.6 -0.9,-1.3 0.6,-1.3 2.4,-0.4 1.5,-0.9 0.8,-2.4 -0.8,0.1 -2.3,1.8 -1.2,1.5 h -1.1 l -0.2,1.3 0.8,1.3 -3.9,-1.9 1.1,-1.1 -0.4,-2 1.1,-1.1 0.1,1.3 2.3,-1.9 3.1,-0.3 -0.5,-0.6 h -3.5 l -0.3,1 -2,-0.9 0.9,1.1 -1.4,1.5 0.4,1.4 -1.6,0.5 -1.3,-2 1.2,-0.2 V 478 l -1.3,1.4 v -3.2 l -1.6,-1.5 -2.7,-1.6 0.5,-0.6 2.8,2.1 -1.2,-2 -1.2,-0.5 1.4,-0.9 -0.1,-2.8 -1.8,-1.1 0.9,2.6 -0.7,-0.5 -0.5,-3.1 2.3,-1 -0.1,-1 1.3,-0.3 -1.3,-0.9 -0.1,1.7 -1.5,0.3 -0.8,-2.3 -2.1,-1.5 1.5,-1 -0.2,-2.2 1,-2.2 -0.4,-2 -0.2,2.2 -0.9,0.8 -0.1,-3.2 -0.6,-1.2 v -3 l -1.5,-4.2 2.6,-0.3 3.5,1.2 -1.7,-2 0.5,-0.8 -4.7,0.2 -1,-0.4 0.5,-1 1.3,0.3 -1.1,-1.4 0.9,-1.6 1.5,-0.5 -1.6,-2.6 -1.7,0.2 -0.2,0.7 -2.1,-1.5 -1.1,0.4 -0.9,2 -1,-2.1 2.6,-3.3 0.6,0.3 0.6,-1.9 -0.5,0.7 -0.8,-1.6 1.5,-0.6 v 1 l 0.2,-0.7 2.6,-0.6 1,1.5 1,-1.8 0.5,1.9 -0.3,3.6 0.5,-1.9 -0.1,-2.4 1.4,-2.7 -1.3,1.4 -1.2,-0.9 0.3,-1.3 2.4,-1.4 -1.2,-0.1 0.3,-2.2 1.1,-0.2 1.8,-1.5 v -1.8 l -3.2,-2 1.5,-4.2 -1,-0.8 1.5,-3.3 -0.7,-1.7 0.8,-1.9 -0.8,-1.6 1.2,-0.3 0.6,1.6 v -2 l -2.5,-1.4 1.3,-1.5 -1.9,-1.3 -0.5,1.8 -2,0.6 -1.4,-0.3 -1.5,-5.2 0.8,-3 -0.3,-3.8 1.2,-1.1 0.9,-2.4 -0.5,-2.8 -1.8,-4.2 0.2,-2.3 -1.3,-2.4 0.1,-3.8 2,-0.2 0.1,-2.2 0.7,-0.9 0.6,-2.8 0.1,-2.4 0.9,-1 -0.4,-1.6 2,-3.1 0.7,-3.1 -0.1,-3.3 1.8,-4.3 -1,-2.8 1,-0.7 0.5,-4.2 -0.8,-1.1 0.1,-2 -1.3,-4.7 -0.6,-3.5 0.3,-2.5 1.4,-0.7 0.4,-1.6 -0.8,-4 -1,-2.2 1.7,-3.9 v -2.7 l 1.2,-2.2 -0.5,-3 0.9,-1.1 0.4,-6.4 -0.7,-1.1 0.4,-1.9 1.1,-1.4 -1.1,-3.9 v -6.1 l 0.4,-1.8 -1.3,0.1 0.1,-2.7 1.6,-1.4 0.3,-8.1 0.5,-1.6 -1.1,-3.9 0.1,-4.8 -0.3,-2.2 -1,-2.7 -0.7,-3.4 0.2,-2.2 z M 351,493.2 v 0.5 0.2 l -1.8,0.6 -2.6,-0.8 -1.9,0.3 -2.4,-0.3 -0.6,0.5 -1.5,-1.8 -0.4,0.9 -0.9,-1.4 -0.2,1.1 -2.3,0.2 -0.4,-1.5 1.5,0.7 -0.3,-1.3 1.6,-0.4 1.8,0.6 v -1 l 1.5,-0.2 -1.5,-1.6 3.2,1.6 0.7,-0.9 4.9,1.1 -4.9,-2.3 -0.7,-2 1.1,-1.3 2.4,-1.2 v -1.3 l -4,1.1 -1.1,-1.1 0.1,-2.3 1.4,-0.9 -1.5,-1.1 1.9,0.5 1.2,-0.6 0.6,-2 0.7,-0.5 1.4,1.6 1.5,-1.1 0.7,0.6 v 0 l 0.1,1.3 0.4,6.8 0.4,6.9 0.1,1.3 h -0.3 z m -32.3,-45.3 -0.7,0.6 -1.3,-2.6 0.7,0.2 1.4,0.2 0.1,1.3 0.5,-0.9 1.2,3.2 -2,-0.2 -0.5,-0.8 z m 9.4,34.7 -2,-0.8 v 1.3 l -2.6,-2 -0.5,-1.5 2,1.6 3.7,1 1.9,1.5 -2.3,-0.2 z m 23.2,14.4 2.1,0.7 0.8,1.4 -0.3,1 -0.9,-1.5 -3.2,-0.5 0.6,-1.9 -1,0.7 -2,-0.1 0.5,1.3 -2.5,-0.7 0.1,-1.8 6.3,-1.4 0.5,0.9 -1.2,0.8 1.7,1 z m -17.8,-8.8 -1.1,0.5 -0.4,-1.5 -1.9,1.8 -0.2,-2.5 -1,-0.9 -0.9,-0.3 3.3,-1 3.6,2.4 -1.1,1.4 1,1.3 -0.8,1.5 -0.5,-1 0.9,-0.8 z m -14.8,-29.4 -1.1,-2.1 -1.2,-0.6 0.6,-1.3 1.6,-0.3 -1,-0.7 0.6,-0.9 1.2,0.5 -1.2,-1.9 0.3,-0.7 -0.2,-0.7 2.3,0.4 0.8,4.3 -0.3,1.4 0.7,1.6 -0.3,1.9 -1.5,0.3 -0.1,-2.4 -0.9,-1.1 z m -0.9,-52.7 0.5,-2.2 -0.3,-2.2 1.1,0.5 1.4,-0.8 1.2,3.4 -1.2,0.6 -0.6,1 1.7,2.3 -0.8,0.3 0.9,1.3 -1.3,0.4 0.3,1.8 -1.7,0.2 -1.7,-0.9 0.7,-1.6 0.3,-2.7 z"
   id="path8"
    />
			<path
   class="ARG"
   d="m 369.9,491.6 h 2.3 l -3.8,1.5 -0.4,-0.5 z m -18.9,1.6 0.3,0.5 -0.3,0.2 v -0.2 z m 47.6,-153.5 -0.8,0.1 -0.9,4 0.9,3.4 -1.1,0.6 0.5,1.6 1.7,1.5 3.4,1.8 1.5,1.6 0.5,1.6 -1.1,1.6 0.5,2.9 2.9,1.6 0.1,3 -2.2,3.7 -2.4,3.1 -0.5,1.8 -2.9,1.8 -4.8,1.8 -9.3,1.9 -3.4,0.3 -4.6,-1.3 0.7,3 1.2,0.7 -0.4,3.1 -1,-0.1 -0.3,2.7 -0.6,0.7 1.1,1.8 1.2,-1.7 -1.5,3.8 -3.8,2 -3.5,0.1 -4.9,-2 -0.8,-0.8 -1.4,2.1 1,3.6 -0.3,3 1.1,1.4 1.9,0.3 -0.6,1.3 h 2.4 l -0.9,-1.2 2.4,-1.4 1.2,1.8 -0.1,2.8 -2.4,1 -0.5,-1.6 -1.2,-0.9 -2.5,1.1 -0.2,0.9 2.9,1.2 -1.6,1.3 -2.7,3.7 0.7,4.8 -0.8,1.6 -1.4,0.9 0.5,2.2 -2.9,-0.1 -3.2,1.9 -2.1,2.8 -1.2,3.9 1.1,2.8 1.5,0.9 1.7,2 3.9,0.2 1.2,0.9 0.1,2.2 -0.9,3.9 -1.7,2.3 -3.5,2.5 -2,2.6 -0.5,5.6 -0.4,1.3 -2.3,1.4 -1.7,-2.6 0.3,1.6 1.2,1.2 -2.3,1.5 -0.8,1.7 -0.2,3.1 1.4,4.9 2.3,4.7 v 0 0 l -6.8,-1.7 -8.9,0.6 -0.3,-0.9 -2.5,-2.2 0.7,-2.5 -0.6,-4.2 -2.2,-0.1 -1.7,1.1 -1,-3.4 -1.1,-0.9 v -2.8 l -0.7,-1.6 0.5,-1.6 1.2,-0.6 0.6,-1.9 1.8,-1.6 -0.2,-2.4 1.3,-1 -0.4,-1.9 -1.1,-1 1.5,-3.8 1.3,-1.9 -0.7,-0.8 0.2,-1.7 1.1,-0.9 -0.6,-3.1 -0.8,-0.6 1.4,-1.4 -1,-1.5 V 427 l 1.2,-0.5 0.9,-1.6 -1.5,-2.2 -2.4,-0.3 v -1 l 3.5,0.1 0.9,-2 -0.5,-0.7 -3,0.1 -0.3,-2 0.9,-1.3 -0.5,-2.3 -1.2,-0.9 0.8,-1.9 -2.1,-1.1 -0.2,-2.7 0.5,-0.8 -0.2,-2.3 1.5,-0.6 -1.2,-3.1 v -4.7 l -0.6,-1.5 1.2,-2.7 -0.8,-0.8 0.9,-2.2 -0.5,-2.2 0.9,0.2 0.4,-2.6 -0.2,-2 2.7,-1.9 -1,-4.2 -1.1,-2.3 -0.5,-3 0.5,-1.3 -0.7,-1.7 0.6,-2.4 1.7,-0.6 v -1 l 1.6,-1.6 -0.4,-3.5 -0.9,-1.9 0.8,-0.3 0.6,-4 0.9,-2 1.1,-0.3 -0.6,-3.8 0.5,-1.9 -1.2,-0.4 -0.7,-1.7 -0.6,-3.7 -0.9,-1.2 -1.8,-4.7 0.4,-3 0.7,-1.1 0.6,-3.8 1.5,-0.5 -0.5,-1.4 0.1,-2.4 -0.8,-2.3 1.2,-1.8 0.6,-4.6 2.5,-3.2 0.7,-3.1 1.1,-2.3 1.2,0.3 1.4,-0.9 v -1.1 l -1.5,-2 -0.1,-1.6 0.9,-0.9 -1.4,-4.7 1.2,-2.3 -1.3,-2 1.8,-2.6 5,-2.6 1.7,-6.8 -1.1,-1.1 0.9,-2 1.5,-0.7 0.2,-1.3 2.1,-0.7 0.7,-2.2 3.1,2 4.3,-0.3 2.6,0.6 1.6,4.2 0.5,-2.2 1.7,-3.5 6.8,-0.2 0.9,1.5 2.2,1.5 2,3.5 2.8,2.4 2.3,1.3 0.6,1.3 4,1.4 1.7,-0.1 4.1,3.1 3.1,1.9 3.4,1.1 2.7,1.6 1.1,1.8 -1.2,1.3 -0.7,2.2 -1.7,1.6 -0.5,3.1 -2.3,2.6 0.3,1.1 3.3,-0.3 4.8,1.6 3.6,-0.2 1,0.9 1.4,-1.8 2.1,1 2,-2.8 1.7,-0.3 2.1,-1.9 1,-2.9 0.4,-4 2.9,-0.3 1.1,0.9 1.2,3.9 -0.4,4.2 -0.9,1.9 -6.1,2.7 -0.8,1.4 -1.7,0.4 -2.7,2 -3.8,5.2 -5.2,6 -1.7,1.3 -1.3,2 0.2,2.7 -1.5,3.7 0.5,0.5 -1,1.9 -0.2,3.9 0.2,3.6 v 0.3 z m -47.7,152 -0.6,-11 -0.2,-2.8 -0.1,-1.3 1.7,2.2 -0.9,1.4 0.4,1.4 1.5,0.2 0.7,1.9 3.2,3.3 2.4,1.4 1.4,1.6 2.9,1.3 3,-0.2 -0.7,2.1 -5.2,1.3 -2.2,-1 -7.1,-0.5 z m -0.2,-17.2 -0.2,-0.4 v 0 0 l 0.1,0.1 z"
   id="path9"
    />
			<path
   class="PER"
   d="m 330.4,227.4 -2.3,-1.3 -1.4,0.9 -0.2,2.9 1.2,-0.5 0.9,1.1 1.6,0.2 -0.4,1.2 2.5,0.1 0.3,-0.1 h 0.6 l -0.7,1.8 0.4,0.3 -2.2,3.6 -1.4,1.4 1.1,1.4 -2,1.6 0.6,1.5 -1,1.9 -2.6,0.7 -3.4,-2.3 -3,-1.5 -1,-2.6 -3.8,-1.4 -1.7,-1.6 -2.1,-0.5 -6.5,-2.3 -2.3,-1.5 -2.6,-0.8 -4.9,-2.4 -2.6,-2.8 -2.6,-1.3 -0.5,-1.2 -2,-1.4 0.1,-4.4 -0.4,-1.1 -4.4,-5.3 -0.4,-1.1 -2,-1.3 -0.5,-2.2 -1.2,-1.5 -2.3,-1.1 -0.4,-2.3 -2.9,-3.2 -2.7,-4.6 -0.5,-1.6 -1.5,-1.1 -1.5,-3.6 -1.8,-2.4 -3.6,-2.9 -2.2,-3.9 -3.1,-2.7 -4.8,-1.6 -2.3,-1.3 -0.5,-1.2 1.4,-0.4 0.3,-1.5 -2.7,-2.6 0.7,-1.4 -2.2,-2 0.1,-3.1 2.7,-4.1 2.6,-2.6 1.7,3.1 -2,1.1 0.9,3.1 1.6,-1.5 2.3,1 2.2,0.1 0.6,1.8 2.8,1 0.7,-1.9 1.5,-1.6 -0.3,-1.5 1.3,-4 v -2.5 l 1.1,-0.5 2,-3 7.6,-3.8 3.7,-3.6 3.2,-4.7 0.6,-4.1 1.3,0.2 -0.6,-3.1 -2.8,-2.6 2.4,-0.3 0.4,-0.6 2.9,0.6 3.2,2.5 0.7,2 3.4,2 1.7,0.2 1,2.8 2.5,0.7 0.2,2.8 1.9,1.3 2,-0.8 1.7,0.7 2.9,-1.1 1.5,-1.5 2.3,1.5 2.8,-1.5 4.5,1.6 2.2,1.4 -4.1,7.7 2.9,0.1 2.6,2.6 -1.6,0.9 -0.8,-1.1 -3.5,0.3 -0.8,1.4 -5.4,1.1 -1.9,1 -3.5,3.2 -1.9,0.9 -0.2,4 -1.4,2.6 0.9,2.3 -3.9,3.6 0.6,2.7 -1.8,1.8 2.2,1.4 1.6,3.8 2.5,2 1.6,2.3 -1.5,2.3 2.6,-0.2 3.4,0.5 1,3.1 5.2,-0.5 4.8,-3.2 0.6,9.6 2.3,0.2 2.1,-1.1 h 2.4 l 6.4,9.9 -1.7,2.5 0.2,5.8 1,3 -2.1,2.6 -0.8,2.5 1.7,1.6 z"
   id="path10"
    />
			<path
   class="URG"
   d="m 426.4,337.9 -1,0.6 v 1.3 l -1.7,1 0.4,3 v 0.6 l 0.9,0.7 -2.3,4.2 -2.8,1.8 -3.7,1.8 -2.3,-1.3 -2.2,-0.2 -2.8,0.8 -0.3,-0.8 -2.3,-0.6 -1.7,-1.6 -4,-0.1 -2.9,-3.5 -0.3,-1 0.4,-4.2 0.7,-0.6 0.5,-0.5 0.6,-0.6 -0.8,-3.1 0.2,-3.9 1,-1.9 -0.5,-0.5 1.5,-3.7 -0.2,-2.7 1.3,-2 2.2,0.7 2.2,-1.1 4.5,4.7 -0.1,1.8 2.4,-1.4 1.7,2.5 3.7,1.7 2.4,3 2,1 0.6,1.9 z"
   id="path11"
    />
			<path
   class="PAR"
   d="m 422.6,281.7 -0.7,1 -0.9,5.4 -0.7,2.3 0.1,0.6 v 0.3 l -0.4,4 -1,2.9 -2.1,1.9 -1.7,0.3 -2,2.8 -2.1,-1 -1.4,1.8 -1,-0.9 -3.6,0.2 -4.8,-1.6 -3.3,0.3 -0.3,-1.1 2.3,-2.6 0.5,-3.1 1.7,-1.6 0.7,-2.2 1.2,-1.3 -1.1,-1.8 -2.7,-1.6 -3.4,-1.1 -3.1,-1.9 -4.1,-3.1 -1.7,0.1 -4,-1.4 -0.6,-1.3 -2.3,-1.3 -2.8,-2.4 -2,-3.5 -2.2,-1.5 2.1,-7.6 -0.1,-3.2 2,-3.1 1.1,-2.9 10.6,-2.4 h 5.6 l 5.5,3.5 v 2.2 l 2,5.2 -1.1,6.9 0.8,0.7 3.8,0.3 2.2,0.7 2.5,-1.3 1.3,1.3 1.9,0.3 1.4,2 -0.1,2.4 1.2,6.3 2.7,0.1 1.8,-1 z"
   id="path12"
    />
			<path
   class="GF1"
   d="m 332.3,232 0.5,-0.8 0.4,0.7 h -0.6 z m -1.9,8.4 -1.1,-1.4 1.4,-1.4 2.2,-3.6 2.5,-2.3 -1.4,0.1 0.1,-1.8 -3.8,-2.6 1.3,-1.9 -1.7,-1.6 0.8,-2.5 2.1,-2.6 -1,-3 -0.2,-5.8 1.7,-2.5 -6.4,-9.9 5.3,0.1 -0.1,0.8 3.1,-1.2 1.2,-1.9 2.4,-0.1 2.3,-2.6 1.8,-0.6 2.7,-2.5 7.6,-1.8 1,1 0.2,2.6 -0.7,1.5 0.3,4.7 1.5,3.9 1.3,1.6 3.5,1.6 0.5,1.3 3,0.6 0.8,-0.7 2.6,1.4 2,-0.2 1.8,2.2 4.1,0.8 2.1,2.7 5.1,-0.5 3.7,2.2 v 3.1 l 1.1,2.3 0.1,3.1 h -1.9 l 2.1,2.7 0.7,5.1 10.4,0.4 0.5,6.1 3.6,2 1.4,4.1 -1.6,5.6 -2.1,4.3 1.6,1.6 -1.8,1.2 v -2.2 l -5.5,-3.5 H 389 l -10.6,2.4 -1.1,2.9 -2,3.1 0.1,3.2 -2.1,7.6 -0.9,-1.5 -6.8,0.2 -1.7,3.5 -0.5,2.2 -1.6,-4.2 -2.6,-0.6 -4.3,0.3 -3.1,-2 -0.7,2.2 -2.1,0.7 -0.2,1.3 -1.5,0.7 -0.9,2 -2.1,0.6 -2,-0.2 V 273 l -0.9,-3.3 -0.7,-0.6 -0.9,-4.3 -2.3,-2.5 0.4,-1.6 -1.2,-0.7 -0.7,-2.7 1.1,-0.3 -0.8,-1.9 1.1,-1.9 -3.2,-3.1 0.2,-0.6 -1.5,-4.6 z"
   id="GF2"
    />
			<path
   class="st14"
   d="m 409.7,79.9 0.7,-1.8 0.8,-0.5 7.4,1.7 0.7,-1.3 7.8,0.2 5.3,1.3 -0.4,2.6 -2.7,3.1 -0.3,4.2 0.6,3.4 2,2.9 0.3,1.3 -1.6,2.3 0.3,1.1 -1.5,3.2 -1.9,1.3 -2.5,-1.6 -5.3,0.9 -1.8,-0.9 -1,1.3 1.4,2.2 -0.8,1.4 -3.2,-0.9 -1.6,-0.7 -3.2,-5.7 -0.9,-4.2 -1.8,0.3 -1.9,-2.3 -1.7,-3.6 1.7,-3.6 -0.6,-1.4 1.5,-1.1 3.2,-0.2 0.3,-3.4 z"
   id="path14"
    />
			<path
   class="st15"
   d="m 409.7,79.9 v 0.5 l -0.6,1.1 -0.3,3.4 -3.2,0.2 -1.5,1.1 0.6,1.4 -1.7,3.6 1.7,3.6 1.9,2.3 1.8,-0.3 0.9,4.2 3.2,5.7 1.6,0.7 -2.3,0.5 -2.1,-1.1 -1.7,0.3 -1.6,1.8 -5.5,0.7 -1.4,2.3 -2.7,0.3 -2.4,-1.1 -3.6,-3.5 v -2.9 l -1.8,-3.1 1.2,-6.6 2.2,-2.3 -1.5,-1.8 0.3,-1.5 -3.3,-1 1.2,-4.2 -1.7,-1.3 -3.8,0.5 -4.7,-5.2 1.9,-2 -0.6,-2.6 0.6,-1.3 3,-0.3 2.5,-1.4 0.6,-1.3 -2.6,-0.9 -0.6,-2.3 1.7,-2.2 3.6,-1.8 1.5,-1.7 -1.5,-2 6.3,3.8 3.7,3.6 1.5,2 -1.1,6 1.3,-2.6 2.7,0.3 6.5,5.6 v 2.8 z"
   id="path15"
    />
			<path
   class="st16"
   d="m 386.6,470.8 0.2,-2.2 1.4,-0.3 -1.4,-1 -0.4,-1.3 5.4,0.6 -0.3,-0.8 1,0.5 -2.8,4.2 -1.9,0.5 -1.4,1.6 -2,-1.4 -0.5,-1.6 1.1,-0.1 0.2,1 z m 11.1,-3.1 1.7,0.8 -3.2,1.5 -1.5,-0.1 0.7,0.8 -1.5,0.7 -1.3,-0.7 0.7,1.5 -1.5,-0.7 -0.4,1.4 -1,-2.3 3.2,-2.5 -0.8,-0.6 1.1,-2.2 2.1,0.2 0.6,1.5 0.6,-0.9 1.5,-0.1 0.5,1.3 z"
   id="path16"
    />
			<path
   class="COL"
   d="m 340.5,113.3 -1.3,0.5 -0.6,-3.8 -1.7,-2.6 -1.7,0.3 -2.8,2.3 -1.5,-1.8 0.4,2 -11.9,0.9 0.3,4.6 3.4,-0.3 1.8,2.8 -2.6,-0.3 -3.8,1.3 0.2,5.1 3.3,2.4 0.1,1.5 1.8,3 -2.4,21.4 -2.6,-2.6 -2.9,-0.1 4.1,-7.7 -2.2,-1.4 -4.5,-1.6 -2.8,1.5 -2.3,-1.5 -1.5,1.5 -2.9,1.1 -1.7,-0.7 -2,0.8 -1.9,-1.3 -0.2,-2.8 -2.5,-0.7 -1,-2.8 -1.7,-0.2 -3.4,-2 -0.7,-2 -3.2,-2.5 -2.9,-0.6 -0.4,0.6 -3.7,-1 -2,-1.8 -1.9,-0.5 -0.5,1.5 -3.4,0.5 -3.8,-0.7 -0.5,-1.7 -1.6,-1 -3.2,-0.3 -3.4,-1.5 -2,-1.4 -1.5,-1.3 1.1,-1.5 h 2 l -1.3,-2.8 2.2,-3.6 1.6,-0.2 3.1,-2.2 -0.6,-0.5 2.1,-3.4 0.9,-2.7 -2.9,-3.1 1.3,-2.5 -1.5,-6.5 0.9,-2.5 -2.1,-2.7 0.7,-2.8 -2.8,-2.1 -1.9,-2.4 0.7,-3.8 1.1,1.3 2.9,-3.4 -2.3,-3.6 1,-0.5 3.6,2.3 0.2,-2 -1.4,-0.9 4.7,-4.2 1,-2.7 3.3,-1.2 -0.9,-1.8 0.6,-2.1 -0.4,-2.1 0.5,-2.7 4.6,-4.6 2.5,0.6 1.4,1.5 0.9,-4.3 6.8,-0.5 3.7,-3.5 3.7,-1.8 0.5,-2.8 2.7,-0.9 0.7,-1.2 3.6,0.8 1.1,1.8 -1.5,2 -4.7,1.8 -1.8,4 -1.8,0.5 -2.6,5.5 -0.1,4.8 -2.5,5.4 2.6,-1.3 1.5,1 1.5,3.6 2.3,2.2 0.5,1.7 -1,1.3 0.6,3.8 1.9,0.3 1.1,2.3 6.6,0.2 4.4,-1.3 3.6,0.8 5.2,5.7 2.7,-0.9 3.2,0.4 7.7,-1.4 1.2,1.6 -1.2,1.6 -0.2,2.5 -1.4,1.5 0.5,1.6 -0.3,4 2,5.3 2.5,2.3 -3.6,4.1 1.5,0.4 3.2,2.8 z"
   id="path17"
    />
			
			
			
			
			
			
			
			
			
			
			
			
			<path
   class="st23"
   d="m 442.8,103 -2.6,2.6 -3.3,0.5 -0.9,-1.9 -1.5,-0.3 -2.1,1.9 -3,-1.4 1.7,-2.9 0.6,-3.1 1.2,-3 -2.6,-4.1 -0.5,-4.7 3.5,-6 2.3,0.8 5,1.6 7.2,5.8 1.1,2.8 -4,6.3 z"
   id="path28"
    />
			
		</g>
	</g>
</g>
</svg>
